<svg xmlns="http://www.w3.org/2000/svg" viewBox="0 0 1747.58 1615.89"><defs><style>.a{fill:#ec7b75;stroke:#e72c4a;}.a,.c{stroke-miterlimit:10;stroke-width:15px;}.b{fill:#e72c4a;}.c{fill:#f6a758;stroke:#ea5719;}.d{fill:#ea5719;}</style></defs><title>icon</title><path class="a" d="M1081.38,1436.27H1240a9,9,0,0,1,8.93,9.59,971.3,971.3,0,0,1-18.53,132.62,975.38,975.38,0,0,1-77.22,224.92,8.94,8.94,0,0,0,11.3,12.22c59.63-23.13,152.28-69,237.93-158.4a659.23,659.23,0,0,0,137.45-215.28,8.94,8.94,0,0,1,8.32-5.67h110.06c114.91,0,208.06-93.15,208.06-208.06V630.49c0-114.91-93.15-208.06-208.06-208.06H1081.38c-114.91,0-208.06,93.15-208.06,208.06v597.72C873.32,1343.12,966.47,1436.27,1081.38,1436.27Z" transform="translate(-126.21 -207.87)"/><path class="b" d="M1063,921.89c-15.59-12.66-43.84-48.71-63.32-79.88-12.67-20.46-7.8-27.28,23.38-23.39,53.58,8.77,83.78,38,86.7,71.12C1113.68,931.63,1092.24,943.32,1063,921.89Zm32.15,336.1c-8.77,52.6-23.38,54.55-64.3-15.59-29.23-48.71-23.38-61.37-2.92-62.35,17.53-1,33.12-13.64,51.63-47.73,18.51-32.15,51.63-89.63,74-125.68,35.07-58.45,48.71-54.55,23.38,12.67C1118.55,1177.13,1100,1228.76,1095.17,1258Zm68.19-545.55c-20.46-14.62-47.74-41.89-76-77.94-18.51-23.38-12.66-29.22,28.25-26.3,62.35,3.9,88.66,30.2,93.53,67.22C1214,715.36,1190.64,733.87,1163.36,712.44Zm356.56,253.29c0-27.28-4.87-46.76-10.72-57.48-7.79-13.64,3.9-29.22,39.94-8.77,32.15,17.54,38,28.25,31.18,41.89-5.85,14.62-12.67,60.4-23.38,150-2,19.48-12.67,49.68-21.44,64.3-5.84,9.74-19.48,9.74-24.35,0-6.82-14.62-6.82-23.38,1-70.15-121.77,23.39-198.73,51.64-233.81,77.94-17.53,13.64-24.35,13.64-41.88-8.77-17.54-24.35-17.54-35.07-6.82-43.84,24.35-18.51,32.14-105.21,12.66-144.18-5.84-16.56,2.92-22.4,14.61-15.58,29.23,18.51,39.95,41.89,37,55.52-4.87,27.28-7.79,58.46-8.77,97.42,73.07-15.58,145.16-30.2,229.92-44.81C1518,1029.05,1519.92,997.88,1519.92,965.73ZM1242.27,865.39c-19.48,11.69-26.3,2.92-10.72-11.69,73.07-78.91,115.93-144.19,139.31-205.56,19.49-49.68,24.36-81.83,17.54-98.39-10.72-20.46,2.92-33.13,46.76-11.69,53.58,24.35,56.5,40.91,43.84,55.53-13.64,15.58-38,48.71-61.38,86.7-12.66,22.41-24.35,40.92-38,57.48,73.07-7.8,196.79-39.95,222.12-55.53,24.35-13.64,39-14.62,87.68,10.71,56.5,31.18,58.45,44.82,43.84,70.15-18.52,29.22-25.33,117.87-26.31,284.46,0,58.45-4.87,114-11.69,150-13.64,69.17-33.12,101.31-73.06,135.41-26.31,22.41-39,19.48-46.76-2.92-10.72-29.23-38-65.27-69.17-97.42-25.33-24.36-17.54-32.15,8.77-21.43,86.7,36,105.21,26.3,114-8.77,30.2-119.83,37-361.43,24.35-442.29-3.9-19.48-12.66-29.22-31.17-27.27A1026.09,1026.09,0,0,0,1480,756.28c-53.58,11.69-90.6,12.66-117.87,5.84C1324.1,808.88,1285.13,841,1242.27,865.39Zm174.38-41.89c-3.9-21.44,3.9-25.33,34.1-7.8,28.25,16.56,30.2,26.31,19.48,42.87-10.71,14.61-24.35,36-46.76,76,43.84,28.26,55.53,43.84,58.45,61.38,5.85,31.17-15.58,43.84-33.12,22.41-12.66-14.62-26.3-30.2-47.74-49.69-23.38,31.18-61.37,67.22-80.85,79.89-18.51,12.66-25.33,3.89-14.62-7.8,26.31-30.2,47.74-58.45,68.2-96.44-21.44-17.54-45.79-36-75-56.51-13.64-9.74-4.87-23.38,8.77-16.56,33.12,17.54,60.4,31.18,82.81,42.87C1411.78,872.2,1421.52,842,1416.65,823.5Z" transform="translate(-126.21 -207.87)"/><path class="c" d="M919.87,1229.21l-158.61.24a9,9,0,0,0-8.91,9.61,970.57,970.57,0,0,0,96.31,357.38,9,9,0,0,1-11.29,12.25c-59.66-23-152.38-68.79-238.17-158a659.15,659.15,0,0,1-137.79-215.06,9,9,0,0,0-8.33-5.66l-110,.18c-114.91.17-208.21-92.83-208.39-207.74l-.93-597.72c-.18-114.91,92.83-208.21,207.74-208.39l576.85-.89c114.91-.18,208.2,92.83,208.38,207.74l.93,597.71C1127.79,1135.73,1034.78,1229,919.87,1229.21Z" transform="translate(-126.21 -207.87)"/><path class="d" d="M818.13,1018.79,781.4,922.68l-311.5.48-36.43,98.31Q412.13,1079,397,1099.14t-49.62,20.2q-29.26,0-51.77-21.34t-22.55-48.58a108.23,108.23,0,0,1,5.18-32.41q5.19-16.72,17.17-46.54L490.63,472.61q8.33-21.45,20-51.52t25-49.95a102,102,0,0,1,35-32.2q21.66-12.3,53.55-12.36,32.4,0,54.11,12.2a104.2,104.2,0,0,1,35.07,31.56,222.68,222.68,0,0,1,22.54,41.52q9.17,22.2,23.35,59.28L960.21,965.25q23.61,56.41,23.65,82,0,26.65-22.14,48.91t-53.54,22.29q-18.3,0-31.37-6.48a64.13,64.13,0,0,1-22-17.74q-8.91-11.22-19.13-34.46T818.13,1018.79ZM510.49,806.55l228.92-.36-116-316Z" transform="translate(-126.21 -207.87)"/></svg>